<?xml version="1.0" encoding="UTF-8" standalone="no"?>
<!DOCTYPE svg PUBLIC "-//W3C//DTD SVG 1.1//EN" "http://www.w3.org/Graphics/SVG/1.1/DTD/svg11.dtd">
<svg width="100%" height="100%" viewBox="0 0 16 16" version="1.1" xmlns="http://www.w3.org/2000/svg" xmlns:xlink="http://www.w3.org/1999/xlink" xml:space="preserve" xmlns:serif="http://www.serif.com/" style="fill-rule:evenodd;clip-rule:evenodd;stroke-linejoin:round;stroke-miterlimit:2;">
    <g id="Layer2">
        <g transform="matrix(0.714286,0,0,1,2.28571,0)">
            <path d="M12.2,15L5.2,15C2.882,15 1,13.656 1,12L1,4C1,2.344 2.882,1 5.2,1L15,1L15,12L12.2,12L12.2,15Z" style="fill:rgb(90,90,90);"/>
        </g>
        <rect x="16.756" y="11" width="0.244" height="0.5" style="fill:rgb(224,224,224);"/>
        <g transform="matrix(1.25,0,0,3,-2,-5)">
            <path d="M10.4,4L6.4,4C5.075,4 4,3.552 4,3C4,2.448 5.075,2 6.4,2L12,2L12,2.5L6.4,2.5C5.738,2.5 5.2,2.724 5.2,3C5.2,3.276 5.738,3.5 6.4,3.5L10.4,3.5L10.4,4Z" style="fill:rgb(54,54,54);"/>
        </g>
        <rect x="9.5" y="7" width="1.5" height="8" style="fill:rgb(54,54,54);"/>
    </g>
</svg>
